<svg width="1026" height="544" viewBox="0 0 1026 544" fill="none" xmlns="http://www.w3.org/2000/svg">
<path d="M231.056 8.81588C231.465 7.32991 231.976 5.87595 233.051 4.77064C242.009 -4.44896 271.106 0.691559 277.456 11.6903C277.456 11.6903 417.908 303.948 669.331 514.315C671.243 515.915 672.835 517.927 673.793 520.23C683.274 543 669.939 543 657.092 543H22.3724C9.37136 543 -9.40332 535.302 5.47076 518.594C6.58749 517.34 7.63831 515.957 8.42723 514.475C175.851 199.827 225.297 29.744 231.056 8.81588Z" fill="#BBBBBB"/>
<path d="M696.801 100.77C719.234 61.9154 736.562 82.464 749.255 100.77C749.189 101.136 680.467 481.963 1021.3 493.114C1032.85 524.86 1020.83 543.215 995.07 543.215H450.985C447.447 543.215 444.109 542.668 441.021 541.671H696.706C709.555 541.671 722.892 541.67 713.409 518.9C712.45 516.598 710.859 514.585 708.946 512.985C647.12 461.263 592.003 404.59 544.033 348.528C597.989 276.98 658.182 187.522 696.801 100.77Z" fill="#BBBBBB"/>
<path d="M504.871 0C574.74 0 634.776 42.0975 661 102.311C622.103 174.045 572.916 244.374 529.017 301.744C526.277 303.804 519.571 308.962 518.024 310C449.352 232.207 394.291 154.402 354 91.3342C382.443 37.0431 439.331 0 504.871 0Z" fill="#BBBBBB"/>
</svg>
